<svg width="151" height="40" viewBox="0 0 151 40" fill="none" xmlns="http://www.w3.org/2000/svg">
<path d="M34.1422 5.85781C30.3647 2.08031 25.3422 0 20 0C14.6578 0 9.63531 2.08031 5.85781 5.85781C2.08031 9.63531 0 14.6578 0 20C0 25.3422 2.08039 30.3646 5.85781 34.1422C9.63523 37.9198 14.6578 40 20 40C25.3422 40 30.3647 37.9197 34.1422 34.1422C37.9197 30.3647 40 25.3422 40 20C40 14.6578 37.9196 9.63539 34.1422 5.85781Z" fill="#33CC95"/>
<g clip-path="url(#clip0)">
<path d="M20.5714 8V33.1429" stroke="white" stroke-width="2" stroke-linecap="round" stroke-linejoin="round"/>
<path d="M26.2857 12.5714H17.7143C16.6534 12.5714 15.636 12.9929 14.8859 13.743C14.1357 14.4931 13.7143 15.5106 13.7143 16.5714C13.7143 17.6323 14.1357 18.6497 14.8859 19.3999C15.636 20.15 16.6534 20.5714 17.7143 20.5714H23.4286C24.4894 20.5714 25.5069 20.9929 26.257 21.743C27.0072 22.4932 27.4286 23.5106 27.4286 24.5714C27.4286 25.6323 27.0072 26.6497 26.257 27.3999C25.5069 28.15 24.4894 28.5714 23.4286 28.5714H13.7143" stroke="white" stroke-width="2" stroke-linecap="round" stroke-linejoin="round"/>
</g>
<path d="M57.2383 13.2031V16.3203H59.4062V18.8047H57.2383V25.1328C57.2383 25.6016 57.3281 25.9375 57.5078 26.1406C57.6875 26.3438 58.0312 26.4453 58.5391 26.4453C58.9141 26.4453 59.2461 26.418 59.5352 26.3633V28.9297C58.8711 29.1328 58.1875 29.2344 57.4844 29.2344C55.1094 29.2344 53.8984 28.0352 53.8516 25.6367V18.8047H52V16.3203H53.8516V13.2031H57.2383ZM68.1602 25.4961C68.1602 25.082 67.9531 24.7578 67.5391 24.5234C67.1328 24.2812 66.4766 24.0664 65.5703 23.8789C62.5547 23.2461 61.0469 21.9648 61.0469 20.0352C61.0469 18.9102 61.5117 17.9727 62.4414 17.2227C63.3789 16.4648 64.6016 16.0859 66.1094 16.0859C67.7188 16.0859 69.0039 16.4648 69.9648 17.2227C70.9336 17.9805 71.418 18.9648 71.418 20.1758H68.0312C68.0312 19.6914 67.875 19.293 67.5625 18.9805C67.25 18.6602 66.7617 18.5 66.0977 18.5C65.5273 18.5 65.0859 18.6289 64.7734 18.8867C64.4609 19.1445 64.3047 19.4727 64.3047 19.8711C64.3047 20.2461 64.4805 20.5508 64.832 20.7852C65.1914 21.0117 65.793 21.2109 66.6367 21.3828C67.4805 21.5469 68.1914 21.7344 68.7695 21.9453C70.5586 22.6016 71.4531 23.7383 71.4531 25.3555C71.4531 26.5117 70.957 27.4492 69.9648 28.168C68.9727 28.8789 67.6914 29.2344 66.1211 29.2344C65.0586 29.2344 64.1133 29.0469 63.2852 28.6719C62.4648 28.2891 61.8203 27.7695 61.3516 27.1133C60.8828 26.4492 60.6484 25.7344 60.6484 24.9688H63.8594C63.8906 25.5703 64.1133 26.0312 64.5273 26.3516C64.9414 26.6719 65.4961 26.832 66.1914 26.832C66.8398 26.832 67.3281 26.7109 67.6562 26.4688C67.9922 26.2188 68.1602 25.8945 68.1602 25.4961ZM82.7969 16.3203L82.9023 17.7383C83.8008 16.6367 85.0156 16.0859 86.5469 16.0859C88.1797 16.0859 89.3008 16.7305 89.9102 18.0195C90.8008 16.7305 92.0703 16.0859 93.7188 16.0859C95.0938 16.0859 96.1172 16.4883 96.7891 17.293C97.4609 18.0898 97.7969 19.293 97.7969 20.9023V29H94.3984V20.9141C94.3984 20.1953 94.2578 19.6719 93.9766 19.3438C93.6953 19.0078 93.1992 18.8398 92.4883 18.8398C91.4727 18.8398 90.7695 19.3242 90.3789 20.293L90.3906 29H87.0039V20.9258C87.0039 20.1914 86.8594 19.6602 86.5703 19.332C86.2812 19.0039 85.7891 18.8398 85.0938 18.8398C84.1328 18.8398 83.4375 19.2383 83.0078 20.0352V29H79.6211V16.3203H82.7969ZM99.8828 22.543C99.8828 21.2852 100.125 20.1641 100.609 19.1797C101.094 18.1953 101.789 17.4336 102.695 16.8945C103.609 16.3555 104.668 16.0859 105.871 16.0859C107.582 16.0859 108.977 16.6094 110.055 17.6562C111.141 18.7031 111.746 20.125 111.871 21.9219L111.895 22.7891C111.895 24.7344 111.352 26.2969 110.266 27.4766C109.18 28.6484 107.723 29.2344 105.895 29.2344C104.066 29.2344 102.605 28.6484 101.512 27.4766C100.426 26.3047 99.8828 24.7109 99.8828 22.6953V22.543ZM103.27 22.7891C103.27 23.9922 103.496 24.9141 103.949 25.5547C104.402 26.1875 105.051 26.5039 105.895 26.5039C106.715 26.5039 107.355 26.1914 107.816 25.5664C108.277 24.9336 108.508 23.9258 108.508 22.543C108.508 21.3633 108.277 20.4492 107.816 19.8008C107.355 19.1523 106.707 18.8281 105.871 18.8281C105.043 18.8281 104.402 19.1523 103.949 19.8008C103.496 20.4414 103.27 21.4375 103.27 22.7891ZM117.098 16.3203L117.203 17.7852C118.109 16.6523 119.324 16.0859 120.848 16.0859C122.191 16.0859 123.191 16.4805 123.848 17.2695C124.504 18.0586 124.84 19.2383 124.855 20.8086V29H121.469V20.8906C121.469 20.1719 121.312 19.6523 121 19.332C120.688 19.0039 120.168 18.8398 119.441 18.8398C118.488 18.8398 117.773 19.2461 117.297 20.0586V29H113.91V16.3203H117.098ZM133.27 29.2344C131.41 29.2344 129.895 28.6641 128.723 27.5234C127.559 26.3828 126.977 24.8633 126.977 22.9648V22.6367C126.977 21.3633 127.223 20.2266 127.715 19.2266C128.207 18.2188 128.902 17.4453 129.801 16.9062C130.707 16.3594 131.738 16.0859 132.895 16.0859C134.629 16.0859 135.992 16.6328 136.984 17.7266C137.984 18.8203 138.484 20.3711 138.484 22.3789V23.7617H130.41C130.52 24.5898 130.848 25.2539 131.395 25.7539C131.949 26.2539 132.648 26.5039 133.492 26.5039C134.797 26.5039 135.816 26.0312 136.551 25.0859L138.215 26.9492C137.707 27.668 137.02 28.2305 136.152 28.6367C135.285 29.0352 134.324 29.2344 133.27 29.2344ZM132.883 18.8281C132.211 18.8281 131.664 19.0547 131.242 19.5078C130.828 19.9609 130.562 20.6094 130.445 21.4531H135.156V21.1836C135.141 20.4336 134.938 19.8555 134.547 19.4492C134.156 19.0352 133.602 18.8281 132.883 18.8281ZM144.988 24.207L147.332 16.3203H150.965L145.867 30.9688L145.586 31.6367C144.828 33.293 143.578 34.1211 141.836 34.1211C141.344 34.1211 140.844 34.0469 140.336 33.8984V31.332L140.852 31.3438C141.492 31.3438 141.969 31.2461 142.281 31.0508C142.602 30.8555 142.852 30.5312 143.031 30.0781L143.43 29.0352L138.988 16.3203H142.633L144.988 24.207Z" fill="white"/>
<defs>
<clipPath id="clip0">
<rect width="27.4286" height="27.4286" fill="white" transform="translate(6.85715 6.85714)"/>
</clipPath>
</defs>
</svg>
